<svg width="40" height="40" viewBox="0 0 40 40" fill="none" xmlns="http://www.w3.org/2000/svg">
<path d="M36.2384 20.5517L21.2383 3.88501C20.6067 3.18168 19.3933 3.18168 18.7617 3.88501L3.76168 20.5517C3.54577 20.791 3.40405 21.0879 3.35375 21.4063C3.30345 21.7247 3.34674 22.0508 3.47835 22.345C3.74501 22.9467 4.34168 23.3333 5.00001 23.3333H8.33335V35C8.33335 35.442 8.50894 35.866 8.8215 36.1785C9.13406 36.4911 9.55799 36.6667 10 36.6667H15C15.442 36.6667 15.866 36.4911 16.1785 36.1785C16.4911 35.866 16.6667 35.442 16.6667 35V28.3333H23.3333V35C23.3333 35.442 23.5089 35.866 23.8215 36.1785C24.1341 36.4911 24.558 36.6667 25 36.6667H30C30.442 36.6667 30.866 36.4911 31.1785 36.1785C31.4911 35.866 31.6667 35.442 31.6667 35V23.3333H35C35.3228 23.3347 35.639 23.2422 35.9101 23.0669C36.1812 22.8917 36.3954 22.6414 36.5267 22.3465C36.6579 22.0516 36.7006 21.7249 36.6494 21.4062C36.5982 21.0875 36.4554 20.7906 36.2384 20.5517Z" fill="#E8ECF1"/>
</svg>
