<svg width="40" height="40" viewBox="0 0 40 40" fill="none" xmlns="http://www.w3.org/2000/svg">
<path d="M32.3742 7.6258C30.7521 5.98764 28.8223 4.68613 26.6957 3.79604C24.5691 2.90596 22.2875 2.44483 19.9822 2.43916C17.6768 2.43348 15.393 2.88337 13.262 3.76298C11.1311 4.64259 9.19487 5.93458 7.56472 7.56473C5.93457 9.19488 4.64258 11.1311 3.76297 13.262C2.88336 15.393 2.43347 17.6768 2.43914 19.9822C2.44481 22.2875 2.90594 24.5691 3.79603 26.6957C4.68612 28.8223 5.98763 30.7521 7.62578 32.3742C9.24789 34.0124 11.1777 35.3139 13.3043 36.204C15.4309 37.0941 17.7125 37.5552 20.0178 37.5609C22.3232 37.5665 24.607 37.1167 26.738 36.237C28.869 35.3574 30.8051 34.0654 32.4353 32.4353C34.0654 30.8051 35.3574 28.869 36.237 26.738C37.1167 24.607 37.5665 22.3232 37.5609 20.0179C37.5552 17.7125 37.0941 15.4309 36.204 13.3043C35.3139 11.1777 34.0124 9.2479 32.3742 7.6258ZM20 33.75V26.25C18.3424 26.25 16.7527 25.5915 15.5806 24.4194C14.4085 23.2473 13.75 21.6576 13.75 20C13.75 18.3424 14.4085 16.7527 15.5806 15.5806C16.7527 14.4085 18.3424 13.75 20 13.75V6.25001C27.582 6.25001 33.75 12.4219 33.75 20C33.75 27.5781 27.582 33.75 20 33.75Z" fill="#E8ECF1"/>
<path d="M26.25 20C26.25 18.3424 25.5915 16.7527 24.4194 15.5806C23.2473 14.4085 21.6576 13.75 20 13.75V26.25C21.6576 26.25 23.2473 25.5915 24.4194 24.4194C25.5915 23.2473 26.25 21.6576 26.25 20Z" fill="#E8ECF1"/>
</svg>
