<svg width="50" height="210" viewBox="0 0 50 210" fill="none" xmlns="http://www.w3.org/2000/svg">
<path d="M26 160V2" stroke="#ABB0FF" stroke-width="3" stroke-linecap="round"/>
<circle cx="25" cy="185" r="22.5" stroke="#273150" stroke-width="5"/>
<path d="M45 185C45 196.046 36.0457 205 25 205C13.9543 205 5 196.046 5 185C5 173.954 13.9543 165 25 165C36.0457 165 45 173.954 45 185Z" fill="white"/>
<path d="M21.4876 195.846C21.2012 196.134 20.8105 196.295 20.4046 196.295C19.9988 196.295 19.6081 196.134 19.3217 195.846L10.6731 187.196C9.77562 186.298 9.77562 184.843 10.6731 183.947L11.7561 182.864C12.6539 181.966 14.1076 181.966 15.0051 182.864L20.4046 188.264L34.9949 173.673C35.8927 172.776 37.3478 172.776 38.2439 173.673L39.3269 174.756C40.2244 175.654 40.2244 177.109 39.3269 178.005L21.4876 195.846Z" fill="#666DF7"/>
</svg>
