<svg width="100" height="107" viewBox="0 0 100 107" fill="none" xmlns="http://www.w3.org/2000/svg">
<path d="M88.3334 11.7817H91.6667C93.4348 11.7817 95.1305 12.4841 96.3807 13.7344C97.631 14.9846 98.3334 16.6803 98.3334 18.4484V78.4484C98.3334 80.2165 97.631 81.9122 96.3807 83.1625C95.1305 84.4127 93.4348 85.1151 91.6667 85.1151H8.33335C6.56524 85.1151 4.86955 84.4127 3.61931 83.1625C2.36907 81.9122 1.66669 80.2165 1.66669 78.4484V18.4484C1.66669 16.6803 2.36907 14.9846 3.61931 13.7344C4.86955 12.4841 6.56524 11.7817 8.33335 11.7817H11.6667" fill="url(#paint0_linear)"/>
<path d="M1.66669 71.7817H98.3334V78.4484C98.3334 80.2165 97.631 81.9122 96.3807 83.1624C95.1305 84.4127 93.4348 85.1151 91.6667 85.1151H8.33335C6.56524 85.1151 4.86955 84.4127 3.61931 83.1624C2.36907 81.9122 1.66669 80.2165 1.66669 78.4484V71.7817Z" fill="url(#paint1_linear)"/>
<path d="M98.3334 75.1147V78.4481C98.3334 80.2162 97.631 81.9119 96.3807 83.1621C95.1305 84.4124 93.4348 85.1147 91.6667 85.1147H8.33335C6.56524 85.1147 4.86955 84.4124 3.61931 83.1621C2.36907 81.9119 1.66669 80.2162 1.66669 78.4481V75.1147C1.66669 76.8829 2.36907 78.5785 3.61931 79.8288C4.86955 81.079 6.56524 81.7814 8.33335 81.7814H91.6667C93.4348 81.7814 95.1305 81.079 96.3807 79.8288C97.631 78.5785 98.3334 76.8829 98.3334 75.1147Z" fill="#C7CDD8"/>
<path d="M66.6666 105.115H33.3333C34.7029 105.119 36.0239 104.607 37.0333 103.681C39.3 101.681 38.8166 100.448 40 85.1147H60C60.4833 91.4147 60.2333 88.0981 61.1666 100.115C61.2991 101.482 61.9355 102.752 62.9521 103.676C63.9687 104.6 65.2928 105.113 66.6666 105.115Z" fill="url(#paint2_linear)"/>
<path d="M18.3334 8.44824H11.6667V61.7816H88.3334V8.44824H81.6667" fill="url(#paint3_linear)"/>
<path d="M18.3334 58.4482H11.6667V61.7816H88.3334V58.4482H81.6667" fill="#CF4055"/>
<path d="M50 8.44841V61.7817C47.8861 59.667 45.3762 57.9897 42.6136 56.8458C39.851 55.7019 36.89 55.1138 33.9 55.1151H18.3333V1.78174H33.9C36.89 1.78043 39.851 2.36855 42.6136 3.51248C45.3762 4.6564 47.8861 6.33368 50 8.44841Z" fill="url(#paint4_linear)"/>
<path d="M50 8.44841V61.7817C52.1138 59.667 54.6238 57.9897 57.3864 56.8458C60.149 55.7019 63.11 55.1138 66.1 55.1151H81.6667V1.78174H66.1C63.11 1.78043 60.149 2.36855 57.3864 3.51248C54.6238 4.6564 52.1138 6.33368 50 8.44841Z" fill="url(#paint5_linear)"/>
<path d="M50 56.7814V61.7814C47.8861 59.6667 45.3762 57.9894 42.6136 56.8455C39.851 55.7016 36.89 55.1134 33.9 55.1147H18.3333V50.1147H33.9C36.89 50.1134 39.851 50.7016 42.6136 51.8455C45.3762 52.9894 47.8861 54.6667 50 56.7814Z" fill="#C7CDD8"/>
<path d="M81.6667 50.1147V55.1147H66.1C63.11 55.1134 60.149 55.7016 57.3864 56.8455C54.6238 57.9894 52.1138 59.6667 50 61.7814V56.7814C52.1138 54.6667 54.6238 52.9894 57.3864 51.8455C60.149 50.7016 63.11 50.1134 66.1 50.1147H81.6667Z" fill="#C7CDD8"/>
<path d="M60.3834 90.1147H39.6167L40 85.1147H60L60.3834 90.1147Z" fill="#ADB3C4"/>
<path d="M98.3334 68.4482H1.66669V71.7816H98.3334V68.4482Z" fill="#42455E"/>
<path d="M91.6667 10.1148H90V8.44816C90 8.00614 89.8244 7.58221 89.5118 7.26965C89.1993 6.95709 88.7754 6.7815 88.3333 6.7815H83.3333V1.7815C83.3333 1.33947 83.1577 0.915546 82.8452 0.602985C82.5326 0.290425 82.1087 0.11483 81.6667 0.11483C66.6667 0.11483 58.5333 -1.3185 50 6.19816C41.4167 -1.35184 33.3333 0.11483 18.3333 0.11483C17.8913 0.11483 17.4674 0.290425 17.1548 0.602985C16.8423 0.915546 16.6667 1.33947 16.6667 1.7815V6.7815H11.6667C11.2246 6.7815 10.8007 6.95709 10.4882 7.26965C10.1756 7.58221 10 8.00614 10 8.44816V10.1148H8.33333C6.1232 10.1148 4.00358 10.9928 2.44078 12.5556C0.877974 14.1184 0 16.238 0 18.4482V78.4482C0 80.6583 0.877974 82.7779 2.44078 84.3407C4.00358 85.9035 6.1232 86.7815 8.33333 86.7815H38.2L37.1667 99.9815C37.0716 100.932 36.6266 101.813 35.9182 102.454C35.2097 103.094 34.2885 103.449 33.3333 103.448H30C29.558 103.448 29.134 103.624 28.8215 103.936C28.5089 104.249 28.3333 104.673 28.3333 105.115C28.3333 105.557 28.5089 105.981 28.8215 106.293C29.134 106.606 29.558 106.782 30 106.782H70C70.442 106.782 70.866 106.606 71.1785 106.293C71.4911 105.981 71.6667 105.557 71.6667 105.115C71.6667 104.673 71.4911 104.249 71.1785 103.936C70.866 103.624 70.442 103.448 70 103.448H66.6667C65.7131 103.453 64.7919 103.102 64.0831 102.464C63.3743 101.826 62.9287 100.947 62.8333 99.9982L61.8 86.7815H91.6667C93.8768 86.7815 95.9964 85.9035 97.5592 84.3407C99.122 82.7779 100 80.6583 100 78.4482V18.4482C100 16.238 99.122 14.1184 97.5592 12.5556C95.9964 10.9928 93.8768 10.1148 91.6667 10.1148ZM86.6667 10.1148V60.1148H54.7333C61.3167 55.8815 66.0833 56.7815 81.6667 56.7815C82.1087 56.7815 82.5326 56.6059 82.8452 56.2933C83.1577 55.9808 83.3333 55.5569 83.3333 55.1148V10.1148H86.6667ZM80 3.44816V53.4482C66.4 53.4482 59.5667 52.3482 51.6667 58.1648V9.14816C55.5699 5.46921 60.7363 3.42888 66.1 3.44816H80ZM20 3.44816C33.05 3.44816 40.8 2.0815 48.3333 9.14816V58.1648C40.2667 52.2315 33.1833 53.4482 20 53.4482V3.44816ZM13.3333 10.1148H16.6667V55.1148C16.6667 55.5569 16.8423 55.9808 17.1548 56.2933C17.4674 56.6059 17.8913 56.7815 18.3333 56.7815C33.8 56.7815 38.6833 55.8815 45.2667 60.1148H13.3333V10.1148ZM8.33333 13.4482H10V61.7815C10 62.2235 10.1756 62.6474 10.4882 62.96C10.8007 63.2726 11.2246 63.4482 11.6667 63.4482H88.3333C88.7754 63.4482 89.1993 63.2726 89.5118 62.96C89.8244 62.6474 90 62.2235 90 61.7815V13.4482H91.6667C92.9927 13.4482 94.2645 13.9749 95.2022 14.9126C96.1399 15.8503 96.6667 17.1221 96.6667 18.4482V70.1148H3.33333V18.4482C3.33333 17.1221 3.86012 15.8503 4.7978 14.9126C5.73548 13.9749 7.00725 13.4482 8.33333 13.4482ZM60.5833 103.448H39.4C40.6833 101.431 40.4167 101.148 41.55 86.7815H58.4667C59.4667 99.8482 59.2 101.265 60.5833 103.448ZM96.6667 78.4482C96.6667 79.7742 96.1399 81.046 95.2022 81.9837C94.2645 82.9214 92.9927 83.4482 91.6667 83.4482H8.33333C7.00725 83.4482 5.73548 82.9214 4.7978 81.9837C3.86012 81.046 3.33333 79.7742 3.33333 78.4482V73.4482H96.6667V78.4482Z" fill="black"/>
<path d="M48.3334 80.1151H51.6667C52.1087 80.1151 52.5326 79.9395 52.8452 79.6269C53.1578 79.3144 53.3334 78.8904 53.3334 78.4484C53.3334 78.0064 53.1578 77.5825 52.8452 77.2699C52.5326 76.9573 52.1087 76.7817 51.6667 76.7817H48.3334C47.8913 76.7817 47.4674 76.9573 47.1548 77.2699C46.8423 77.5825 46.6667 78.0064 46.6667 78.4484C46.6667 78.8904 46.8423 79.3144 47.1548 79.6269C47.4674 79.9395 47.8913 80.1151 48.3334 80.1151Z" fill="black"/>
<path d="M26.6667 13.4481H41.6667C42.1087 13.4481 42.5326 13.2725 42.8452 12.9599C43.1577 12.6474 43.3333 12.2234 43.3333 11.7814C43.3333 11.3394 43.1577 10.9155 42.8452 10.6029C42.5326 10.2903 42.1087 10.1147 41.6667 10.1147H26.6667C26.2246 10.1147 25.8007 10.2903 25.4882 10.6029C25.1756 10.9155 25 11.3394 25 11.7814C25 12.2234 25.1756 12.6474 25.4882 12.9599C25.8007 13.2725 26.2246 13.4481 26.6667 13.4481Z" fill="black"/>
<path d="M26.6667 21.7816H41.6667C42.1087 21.7816 42.5326 21.606 42.8452 21.2934C43.1577 20.9809 43.3333 20.5569 43.3333 20.1149C43.3333 19.6729 43.1577 19.249 42.8452 18.9364C42.5326 18.6238 42.1087 18.4482 41.6667 18.4482H26.6667C26.2246 18.4482 25.8007 18.6238 25.4882 18.9364C25.1756 19.249 25 19.6729 25 20.1149C25 20.5569 25.1756 20.9809 25.4882 21.2934C25.8007 21.606 26.2246 21.7816 26.6667 21.7816Z" fill="black"/>
<path d="M26.6667 30.1151H41.6667C42.1087 30.1151 42.5326 29.9395 42.8452 29.6269C43.1577 29.3144 43.3333 28.8904 43.3333 28.4484C43.3333 28.0064 43.1577 27.5825 42.8452 27.2699C42.5326 26.9573 42.1087 26.7817 41.6667 26.7817H26.6667C26.2246 26.7817 25.8007 26.9573 25.4882 27.2699C25.1756 27.5825 25 28.0064 25 28.4484C25 28.8904 25.1756 29.3144 25.4882 29.6269C25.8007 29.9395 26.2246 30.1151 26.6667 30.1151Z" fill="black"/>
<path d="M26.6667 38.4481H41.6667C42.1087 38.4481 42.5326 38.2725 42.8452 37.9599C43.1577 37.6474 43.3333 37.2234 43.3333 36.7814C43.3333 36.3394 43.1577 35.9155 42.8452 35.6029C42.5326 35.2903 42.1087 35.1147 41.6667 35.1147H26.6667C26.2246 35.1147 25.8007 35.2903 25.4882 35.6029C25.1756 35.9155 25 36.3394 25 36.7814C25 37.2234 25.1756 37.6474 25.4882 37.9599C25.8007 38.2725 26.2246 38.4481 26.6667 38.4481Z" fill="black"/>
<path d="M26.6667 46.7816H41.6667C42.1087 46.7816 42.5326 46.606 42.8452 46.2934C43.1577 45.9809 43.3333 45.5569 43.3333 45.1149C43.3333 44.6729 43.1577 44.249 42.8452 43.9364C42.5326 43.6238 42.1087 43.4482 41.6667 43.4482H26.6667C26.2246 43.4482 25.8007 43.6238 25.4882 43.9364C25.1756 44.249 25 44.6729 25 45.1149C25 45.5569 25.1756 45.9809 25.4882 46.2934C25.8007 46.606 26.2246 46.7816 26.6667 46.7816Z" fill="black"/>
<path d="M58.3334 13.4481H73.3334C73.7754 13.4481 74.1993 13.2725 74.5119 12.9599C74.8244 12.6474 75 12.2234 75 11.7814C75 11.3394 74.8244 10.9155 74.5119 10.6029C74.1993 10.2903 73.7754 10.1147 73.3334 10.1147H58.3334C57.8913 10.1147 57.4674 10.2903 57.1548 10.6029C56.8423 10.9155 56.6667 11.3394 56.6667 11.7814C56.6667 12.2234 56.8423 12.6474 57.1548 12.9599C57.4674 13.2725 57.8913 13.4481 58.3334 13.4481Z" fill="black"/>
<path d="M58.3334 21.7816H73.3334C73.7754 21.7816 74.1993 21.606 74.5119 21.2934C74.8244 20.9809 75 20.5569 75 20.1149C75 19.6729 74.8244 19.249 74.5119 18.9364C74.1993 18.6238 73.7754 18.4482 73.3334 18.4482H58.3334C57.8913 18.4482 57.4674 18.6238 57.1548 18.9364C56.8423 19.249 56.6667 19.6729 56.6667 20.1149C56.6667 20.5569 56.8423 20.9809 57.1548 21.2934C57.4674 21.606 57.8913 21.7816 58.3334 21.7816Z" fill="black"/>
<path d="M58.3334 30.1151H73.3334C73.7754 30.1151 74.1993 29.9395 74.5119 29.6269C74.8244 29.3144 75 28.8904 75 28.4484C75 28.0064 74.8244 27.5825 74.5119 27.2699C74.1993 26.9573 73.7754 26.7817 73.3334 26.7817H58.3334C57.8913 26.7817 57.4674 26.9573 57.1548 27.2699C56.8423 27.5825 56.6667 28.0064 56.6667 28.4484C56.6667 28.8904 56.8423 29.3144 57.1548 29.6269C57.4674 29.9395 57.8913 30.1151 58.3334 30.1151Z" fill="black"/>
<path d="M58.3334 38.4481H73.3334C73.7754 38.4481 74.1993 38.2725 74.5119 37.9599C74.8244 37.6474 75 37.2234 75 36.7814C75 36.3394 74.8244 35.9155 74.5119 35.6029C74.1993 35.2903 73.7754 35.1147 73.3334 35.1147H58.3334C57.8913 35.1147 57.4674 35.2903 57.1548 35.6029C56.8423 35.9155 56.6667 36.3394 56.6667 36.7814C56.6667 37.2234 56.8423 37.6474 57.1548 37.9599C57.4674 38.2725 57.8913 38.4481 58.3334 38.4481Z" fill="black"/>
<path d="M58.3334 46.7816H73.3334C73.7754 46.7816 74.1993 46.606 74.5119 46.2934C74.8244 45.9809 75 45.5569 75 45.1149C75 44.6729 74.8244 44.249 74.5119 43.9364C74.1993 43.6238 73.7754 43.4482 73.3334 43.4482H58.3334C57.8913 43.4482 57.4674 43.6238 57.1548 43.9364C56.8423 44.249 56.6667 44.6729 56.6667 45.1149C56.6667 45.5569 56.8423 45.9809 57.1548 46.2934C57.4674 46.606 57.8913 46.7816 58.3334 46.7816Z" fill="black"/>
<defs>
<linearGradient id="paint0_linear" x1="50" y1="85.1151" x2="50" y2="11.7817" gradientUnits="userSpaceOnUse">
<stop stop-color="#474F72"/>
<stop offset="1" stop-color="#878C9F"/>
</linearGradient>
<linearGradient id="paint1_linear" x1="50" y1="85.1151" x2="50" y2="71.7817" gradientUnits="userSpaceOnUse">
<stop stop-color="#D4D8E1"/>
<stop offset="1" stop-color="#F3F4F5"/>
</linearGradient>
<linearGradient id="paint2_linear" x1="50" y1="105.115" x2="50" y2="85.1147" gradientUnits="userSpaceOnUse">
<stop stop-color="#949AAF"/>
<stop offset="1" stop-color="#C6CCDA"/>
</linearGradient>
<linearGradient id="paint3_linear" x1="50" y1="61.7816" x2="50" y2="8.44824" gradientUnits="userSpaceOnUse">
<stop stop-color="#DA5466"/>
<stop offset="1" stop-color="#F4929C"/>
</linearGradient>
<linearGradient id="paint4_linear" x1="430" y1="1141.78" x2="1031.67" y2="1141.78" gradientUnits="userSpaceOnUse">
<stop stop-color="#D4D8E1"/>
<stop offset="1" stop-color="#F3F4F5"/>
</linearGradient>
<linearGradient id="paint5_linear" x1="1063.33" y1="1141.78" x2="1665" y2="1141.78" gradientUnits="userSpaceOnUse">
<stop stop-color="#D4D8E1"/>
<stop offset="1" stop-color="#F3F4F5"/>
</linearGradient>
</defs>
</svg>
